HIERARCHY
ROOT Hips
{
	OFFSET 0.000000 0.043550 0.896534
	CHANNELS 6 Xposition Yposition Zposition Xrotation Yrotation Zrotation
	JOINT LHipJoint
	{
		OFFSET 0.000000 0.000000 0.000000
		CHANNELS 3 Xrotation Yrotation Zrotation
		JOINT LeftUpLeg
		{
			OFFSET 0.097284 0.004447 -0.013777
			CHANNELS 3 Xrotation Yrotation Zrotation
			JOINT LeftLeg
			{
				OFFSET 0.013386 -0.031210 -0.408447
				CHANNELS 3 Xrotation Yrotation Zrotation
				JOINT LeftFoot
				{
					OFFSET 0.003510 0.024501 -0.404520
					CHANNELS 3 Xrotation Yrotation Zrotation
					JOINT LeftToeBase
					{
						OFFSET 0.012440 -0.128101 -0.047900
						CHANNELS 3 Xrotation Yrotation Zrotation
						End Site
						{
							OFFSET 0.002578 -0.016717 -0.002681
						}
					}
				}
			}
		}
	}
	JOINT LowerBack
	{
		OFFSET 0.000000 0.045297 0.070846
		CHANNELS 3 Xrotation Yrotation Zrotation
		JOINT Spine
		{
			OFFSET 0.000000 -0.034990 0.157580
			CHANNELS 3 Xrotation Yrotation Zrotation
			JOINT Spine1
			{
				OFFSET 0.000000 0.000366 0.159040
				CHANNELS 3 Xrotation Yrotation Zrotation
				JOINT LeftShoulder
				{
					OFFSET 0.024456 -0.010626 0.079720
					CHANNELS 3 Xrotation Yrotation Zrotation
					JOINT LeftArm
					{
						OFFSET 0.141044 0.001144 0.014890
						CHANNELS 3 Xrotation Yrotation Zrotation
						JOINT LeftForeArm
						{
							OFFSET 0.251520 0.004037 -0.003460
							CHANNELS 3 Xrotation Yrotation Zrotation
							JOINT LeftHand
							{
								OFFSET 0.225890 0.003184 0.000780
								CHANNELS 3 Xrotation Yrotation Zrotation
								JOINT LThumb
								{
									OFFSET 0.032340 -0.026252 -0.004130
									CHANNELS 3 Xrotation Yrotation Zrotation
									End Site
									{
										OFFSET 0.009397 -0.016305 -0.022342
									}
								}
								JOINT LeftFingerBase
								{
									OFFSET 0.029560 -0.005906 -0.002750
									CHANNELS 3 Xrotation Yrotation Zrotation
									JOINT LeftHandFinger1
									{
										OFFSET 0.065250 -0.026825 0.003210
										CHANNELS 3 Xrotation Yrotation Zrotation
										End Site
										{
											OFFSET 0.024100 0.000384 -0.003163
										}
									}
								}
							}
						}
					}
				}
				JOINT Neck
				{
					OFFSET 0.000000 0.009714 0.150560
					CHANNELS 3 Xrotation Yrotation Zrotation
					JOINT Neck1
					{
						OFFSET 0.000000 -0.017154 0.060490
						CHANNELS 3 Xrotation Yrotation Zrotation
						JOINT Head
						{
							OFFSET 0.000000 -0.017155 0.060480
							CHANNELS 3 Xrotation Yrotation Zrotation
							End Site
							{
								OFFSET 0.000000 0.005825 0.136220
							}
						}
					}
				}
				JOINT RightShoulder
				{
					OFFSET -0.024456 -0.010626 0.079720
					CHANNELS 3 Xrotation Yrotation Zrotation
					JOINT RightArm
					{
						OFFSET -0.141044 0.001144 0.014890
						CHANNELS 3 Xrotation Yrotation Zrotation
						JOINT RightForeArm
						{
							OFFSET -0.251520 0.004037 -0.003460
							CHANNELS 3 Xrotation Yrotation Zrotation
							JOINT RightHand
							{
								OFFSET -0.225890 0.003184 0.000780
								CHANNELS 3 Xrotation Yrotation Zrotation
								JOINT RThumb
								{
									OFFSET -0.032340 -0.026252 -0.004130
									CHANNELS 3 Xrotation Yrotation Zrotation
									End Site
									{
										OFFSET -0.009392 -0.016302 -0.022341
									}
								}
								JOINT RightFingerBase
								{
									OFFSET -0.029560 -0.005906 -0.002750
									CHANNELS 3 Xrotation Yrotation Zrotation
									JOINT RightHandFinger1
									{
										OFFSET -0.065250 -0.026825 0.003210
										CHANNELS 3 Xrotation Yrotation Zrotation
										End Site
										{
											OFFSET -0.024100 0.000384 -0.003164
										}
									}
								}
							}
						}
					}
				}
			}
		}
	}
	JOINT RHipJoint
	{
		OFFSET 0.000000 0.000000 0.000000
		CHANNELS 3 Xrotation Yrotation Zrotation
		JOINT RightUpLeg
		{
			OFFSET -0.097284 0.004447 -0.013777
			CHANNELS 3 Xrotation Yrotation Zrotation
			JOINT RightLeg
			{
				OFFSET -0.013386 -0.031210 -0.408447
				CHANNELS 3 Xrotation Yrotation Zrotation
				JOINT RightFoot
				{
					OFFSET -0.003510 0.024501 -0.404520
					CHANNELS 3 Xrotation Yrotation Zrotation
					JOINT RightToeBase
					{
						OFFSET -0.012440 -0.128101 -0.047900
						CHANNELS 3 Xrotation Yrotation Zrotation
						End Site
						{
							OFFSET -0.002578 -0.016717 -0.002682
						}
					}
				}
			}
		}
	}
}
MOTION
Frames: 6
Frame Time: 0.041667
0.536924 0.997358 1.022576 -2.259965 3.333209 -7.254995 0.000007 0.000001 -0.000005 8.506851 -3.782931 2.958142 12.153698 -1.740898 0.535059 -16.450446 -1.869842 6.120112 -4.479609 0.100050 -0.029116 2.703372 -0.787575 -0.382270 0.149806 -2.740705 -0.491689 -1.365238 -2.393242 -0.304436 -0.000001 0.000000 -0.000000 24.773513 34.296934 -64.769195 -27.102121 -29.885800 -84.866227 -14.625672 -33.856107 -28.761619 0.000004 -0.000003 -0.000003 0.000001 -0.000000 0.000003 0.000004 0.000001 -0.000000 -8.987788 7.743467 -2.621340 26.904689 0.289387 -4.044122 -0.000006 0.000000 0.000001 0.000002 -0.000000 0.000000 76.797493 -74.556132 78.560235 -1.314256 8.903760 17.350924 22.215334 18.691320 -7.420693 -0.000008 0.000003 0.000002 -0.000001 -0.000001 -0.000002 -0.000002 0.000002 0.000002 0.000005 -0.000001 -0.000003 4.027365 -4.095934 3.727097 18.660620 1.797836 -0.782351 -15.263081 3.051034 -9.902682 3.341458 0.072937 -0.026703 
0.537386 1.002114 1.022889 -1.959311 4.237839 -6.834703 0.000011 0.000000 -0.000004 7.361216 -5.003137 2.971613 13.540964 -1.755875 0.587323 -17.162198 -1.776198 5.640698 -3.938562 0.078314 0.019483 2.797028 -1.462289 -0.550818 0.305277 -2.966799 -0.667251 -1.235967 -2.293353 -0.374586 -0.000001 -0.000001 0.000001 24.466979 34.028224 -65.183623 -27.069594 -29.883638 -84.805644 -18.205608 -32.408121 -32.485978 0.000004 -0.000002 -0.000003 -0.000001 0.000001 -0.000000 -0.000001 0.000000 -0.000001 -8.467952 7.416880 -2.608920 25.256545 -0.032152 -3.919529 -0.000004 -0.000000 -0.000002 0.000002 0.000000 -0.000000 77.031666 -75.196845 78.699134 -1.334610 8.970555 17.376035 21.695147 17.357187 -6.960474 -0.000003 0.000001 0.000001 -0.000001 -0.000002 -0.000003 -0.000005 0.000001 0.000003 0.000008 -0.000002 -0.000003 4.102741 -5.292539 4.028527 17.866197 1.828608 -0.769159 -14.969186 3.156631 -10.427720 4.545447 0.098898 -0.037378 
0.537847 1.006870 1.023203 -1.879553 4.460576 -6.227206 0.000009 0.000001 -0.000004 6.872672 -5.429847 2.911519 14.005763 -1.755292 0.603766 -17.336543 -1.627953 5.223964 -4.422406 0.093904 -0.006045 3.372361 -1.256507 -0.540128 0.342447 -3.191804 -0.704215 -1.514209 -2.612461 -0.431182 -0.000002 -0.000000 -0.000000 24.720739 33.960267 -66.139317 -27.037039 -29.881453 -84.744992 -20.361246 -32.465306 -34.280060 0.000003 0.000000 -0.000004 0.000003 0.000001 0.000002 0.000002 -0.000000 -0.000000 -7.495379 7.034961 -2.489061 23.991606 -0.072991 -3.580072 0.000002 0.000001 0.000001 0.000001 -0.000000 0.000001 78.244270 -74.469389 79.264680 -1.368900 9.031528 17.592320 20.564620 18.258091 -4.989554 -0.000003 0.000002 0.000003 -0.000003 0.000001 0.000002 0.000000 0.000001 0.000003 0.000005 -0.000001 -0.000003 3.934005 -5.718572 3.854660 17.977946 1.831978 -0.775448 -15.002828 3.424833 -11.124049 3.595395 0.078401 -0.028910 
0.538308 1.011626 1.023516 -1.868319 3.408503 -5.491889 0.000006 0.000001 -0.000004 6.320798 -4.264201 1.994209 13.792805 -1.773438 0.605153 -16.918582 -1.609309 5.207794 -4.906144 0.109707 -0.031435 4.415360 -0.124293 -0.763619 0.213976 -3.158219 -0.940919 -2.240291 -3.252756 -0.590367 -0.000001 -0.000000 -0.000001 25.251653 35.115495 -66.853174 -27.087067 -29.889881 -84.847759 -20.376906 -32.588827 -31.889880 0.000002 -0.000002 -0.000003 0.000006 -0.000002 0.000003 0.000002 -0.000001 -0.000002 -7.342783 7.717822 -2.165985 23.560831 -0.144966 -3.244058 -0.000004 -0.000000 0.000001 0.000002 -0.000000 -0.000001 79.444567 -71.956658 79.396830 -1.536512 9.601672 18.539819 20.607000 19.696061 -3.238942 -0.000003 -0.000001 -0.000001 0.000001 -0.000002 -0.000006 -0.000003 0.000000 0.000001 0.000003 -0.000001 -0.000001 3.243533 -4.509868 2.966463 18.433530 1.824890 -0.789178 -15.022183 3.329905 -10.939333 3.974479 0.105270 -0.038634 
0.538769 1.016382 1.023830 -1.760598 4.397869 -4.719518 0.000007 0.000002 -0.000004 5.346089 -5.498256 1.669270 14.759697 -1.758644 0.632761 -17.024253 -1.391427 4.685061 -3.697682 0.082433 -0.024520 5.448581 -1.412927 -0.471350 0.910784 -3.287933 -0.599901 -2.088643 -2.644751 -0.424276 -0.000001 -0.000000 -0.000000 25.255608 35.172326 -68.533018 -27.137031 -29.898211 -84.950362 -20.101735 -32.971208 -30.623870 -0.000002 0.000001 -0.000005 0.000001 0.000001 0.000002 0.000002 -0.000002 -0.000000 -8.863261 7.202700 -2.170559 23.540341 0.109424 -3.322246 0.000001 0.000001 0.000000 0.000002 -0.000000 -0.000000 79.659342 -70.887501 80.294556 -1.726162 10.161312 19.644150 26.029472 18.628057 -5.856946 -0.000004 0.000004 -0.000000 -0.000003 -0.000001 -0.000000 -0.000002 0.000000 0.000001 0.000002 -0.000002 -0.000004 3.101908 -5.692739 2.777141 18.162450 1.839859 -0.787197 -14.619219 3.459184 -11.339232 4.556139 0.103274 -0.068709 
0.539231 1.021137 1.024143 -0.893568 3.793120 -4.612106 0.000011 0.000000 -0.000003 3.768882 -4.894345 1.615772 14.849834 -1.768282 0.640964 -16.508038 -1.318148 4.592920 -4.899345 0.109546 -0.031432 6.489198 -0.583121 -0.522851 0.822829 -3.576763 -0.587081 -2.760502 -3.476394 -0.477065 -0.000002 0.000000 -0.000000 27.557875 36.595146 -68.729106 -27.186957 -29.906465 -85.052842 -21.128645 -34.855579 -30.255286 -0.000001 -0.000005 -0.000005 0.000001 0.000000 0.000003 0.000001 -0.000002 -0.000002 -8.100544 7.769181 -1.920759 21.413003 0.628150 -3.031524 -0.000001 0.000000 0.000001 0.000002 -0.000000 0.000001 78.571525 -68.329308 78.787523 -1.926241 10.714952 20.747753 22.683775 19.345252 -2.817986 -0.000004 -0.000003 -0.000001 -0.000001 -0.000004 -0.000001 -0.000001 -0.000003 -0.000003 0.000005 -0.000001 -0.000003 1.424182 -4.983448 2.013926 18.509702 1.836005 -0.798603 -14.421121 3.163232 -10.865582 3.959535 0.082709 -0.006408 
